<svg width="24" height="25" viewBox="0 0 24 25" fill="none" xmlns="http://www.w3.org/2000/svg">
<g id="calendar-check-01">
<path id="Icon" d="M21 10.9287H3M16 2.92871V6.92871M8 2.92871V6.92871M9 16.9287L11 18.9287L15.5 14.4287M7.8 22.9287H16.2C17.8802 22.9287 18.7202 22.9287 19.362 22.6017C19.9265 22.3141 20.3854 21.8552 20.673 21.2907C21 20.6489 21 19.8089 21 18.1287V9.72871C21 8.04855 21 7.20847 20.673 6.56674C20.3854 6.00225 19.9265 5.54331 19.362 5.25569C18.7202 4.92871 17.8802 4.92871 16.2 4.92871H7.8C6.11984 4.92871 5.27976 4.92871 4.63803 5.25569C4.07354 5.54331 3.6146 6.00225 3.32698 6.56674C3 7.20847 3 8.04855 3 9.72871V18.1287C3 19.8089 3 20.6489 3.32698 21.2907C3.6146 21.8552 4.07354 22.3141 4.63803 22.6017C5.27976 22.9287 6.11984 22.9287 7.8 22.9287Z" stroke="#48505E" strokeWidth="2" strokeLinecap="round" strokeLinejoin="round"/>
</g>
</svg>
