<svg width="24" height="25" viewBox="0 0 24 25" fill="none" xmlns="http://www.w3.org/2000/svg">
<g id="file-05">
<path id="Icon" d="M14 3.19824V7.32878C14 7.88883 14 8.16886 14.109 8.38277C14.2049 8.57093 14.3578 8.72392 14.546 8.81979C14.7599 8.92878 15.0399 8.92878 15.6 8.92878H19.7305M14 17.9287H8M16 13.9287H8M20 10.9169V18.1287C20 19.8089 20 20.6489 19.673 21.2907C19.3854 21.8552 18.9265 22.3141 18.362 22.6017C17.7202 22.9287 16.8802 22.9287 15.2 22.9287H8.8C7.11984 22.9287 6.27976 22.9287 5.63803 22.6017C5.07354 22.3141 4.6146 21.8552 4.32698 21.2907C4 20.6489 4 19.8089 4 18.1287V7.72871C4 6.04855 4 5.20847 4.32698 4.56674C4.6146 4.00225 5.07354 3.54331 5.63803 3.25569C6.27976 2.92871 7.11984 2.92871 8.8 2.92871H12.0118C12.7455 2.92871 13.1124 2.92871 13.4577 3.0116C13.7638 3.08509 14.0564 3.2063 14.3249 3.37079C14.6276 3.55632 14.887 3.81574 15.4059 4.3346L18.5941 7.52282C19.113 8.04168 19.3724 8.30111 19.5579 8.60386C19.7224 8.87227 19.8436 9.16491 19.9171 9.47102C20 9.81628 20 10.1832 20 10.9169Z" stroke="#48505E" strokeWidth="2" strokeLinecap="round" strokeLinejoin="round"/>
</g>
</svg>
