<svg width="24" height="25" viewBox="0 0 24 25" fill="none" xmlns="http://www.w3.org/2000/svg">
<g id="hand">
<path id="Icon" d="M6.9 12.3732V15.1509M6.9 12.3732V5.70649C6.9 4.78601 7.66112 4.03982 8.6 4.03982C9.53888 4.03982 10.3 4.78601 10.3 5.70649M6.9 12.3732C6.9 11.4527 6.13888 10.7065 5.2 10.7065C4.26112 10.7065 3.5 11.4527 3.5 12.3732V14.5954C3.5 19.1978 7.30558 22.9287 12 22.9287C16.6944 22.9287 20.5 19.1978 20.5 14.5954V9.03982C20.5 8.11935 19.7389 7.37316 18.8 7.37316C17.8611 7.37316 17.1 8.11935 17.1 9.03982M10.3 5.70649V11.8176M10.3 5.70649V4.59538C10.3 3.6749 11.0611 2.92871 12 2.92871C12.9389 2.92871 13.7 3.6749 13.7 4.59538V5.70649M13.7 5.70649V11.8176M13.7 5.70649C13.7 4.78601 14.4611 4.03982 15.4 4.03982C16.3389 4.03982 17.1 4.78601 17.1 5.70649V9.03982M17.1 9.03982V11.8176" stroke="#48505E" strokeWidth="2" strokeLinecap="round" strokeLinejoin="round"/>
</g>
</svg>
