<svg width="24" height="25" viewBox="0 0 24 25" fill="none" xmlns="http://www.w3.org/2000/svg">
<g id="pie-chart-01">
<path id="Icon" d="M21.2104 16.8183C20.5742 18.3228 19.5792 19.6485 18.3123 20.6796C17.0454 21.7107 15.5452 22.4157 13.9428 22.7331C12.3405 23.0504 10.6848 22.9704 9.12055 22.5001C7.55627 22.0297 6.13103 21.1834 4.96942 20.0349C3.80782 18.8865 2.94522 17.471 2.45704 15.9122C1.96886 14.3534 1.86996 12.6988 2.169 11.0929C2.46804 9.48707 3.1559 7.97892 4.17245 6.70032C5.189 5.42172 6.50329 4.41161 8.0004 3.75829M21.2392 9.10146C21.6395 10.0679 21.8851 11.0897 21.9684 12.1291C21.989 12.3859 21.9993 12.5143 21.9483 12.63C21.9057 12.7266 21.8213 12.818 21.7284 12.8682C21.6172 12.9283 21.4783 12.9283 21.2004 12.9283H12.8004C12.5204 12.9283 12.3804 12.9283 12.2734 12.8738C12.1793 12.8259 12.1028 12.7494 12.0549 12.6553C12.0004 12.5483 12.0004 12.4083 12.0004 12.1283V3.72829C12.0004 3.45043 12.0004 3.31149 12.0605 3.20027C12.1107 3.10737 12.2021 3.02298 12.2987 2.98039C12.4144 2.92939 12.5428 2.93969 12.7996 2.96028C13.839 3.04361 14.8608 3.28917 15.8272 3.6895C17.0405 4.19204 18.1429 4.92864 19.0715 5.85722C20.0001 6.78581 20.7367 7.8882 21.2392 9.10146Z" stroke="#48505E" strokeWidth="2" strokeLinecap="round" strokeLinejoin="round"/>
</g>
</svg>
