<svg width="20" height="20" viewBox="0 0 20 20" fill="none" xmlns="http://www.w3.org/2000/svg">
<g id="moon-star" clipPath="url(#clip0_416_2488)">
<g id="Icon">
<path d="M15 1.66699L15.5148 2.69664C15.7361 3.13913 15.8467 3.36037 15.9945 3.55209C16.1256 3.72221 16.2781 3.87472 16.4483 4.00586C16.64 4.15364 16.8612 4.26426 17.3037 4.4855L18.3334 5.00033L17.3037 5.51515C16.8612 5.73639 16.64 5.84701 16.4483 5.9948C16.2781 6.12593 16.1256 6.27844 15.9945 6.44856C15.8467 6.64028 15.7361 6.86152 15.5148 7.30401L15 8.33366L14.4852 7.30401C14.264 6.86152 14.1533 6.64028 14.0056 6.44856C13.8744 6.27844 13.7219 6.12593 13.5518 5.9948C13.3601 5.84701 13.1388 5.73639 12.6963 5.51515L11.6667 5.00033L12.6963 4.4855C13.1388 4.26426 13.3601 4.15364 13.5518 4.00586C13.7219 3.87472 13.8744 3.72221 14.0056 3.55209C14.1533 3.36037 14.264 3.13913 14.4852 2.69664L15 1.66699Z" stroke="#3D5AF1" strokeWidth="1.66667" strokeLinecap="round" strokeLinejoin="round"/>
<path d="M17.5 11.1581C16.4075 13.0745 14.3455 14.3666 11.9816 14.3666C8.47593 14.3666 5.63398 11.5246 5.63398 8.01893C5.63398 5.65494 6.92626 3.59278 8.84294 2.50033C4.81651 2.88209 1.66669 6.27276 1.66669 10.3991C1.66669 14.7812 5.21912 18.3337 9.60127 18.3337C13.7274 18.3337 17.118 15.1842 17.5 11.1581Z" stroke="#3D5AF1" strokeWidth="1.66667" strokeLinecap="round" strokeLinejoin="round"/>
</g>
</g>
<defs>
<clipPath id="clip0_416_2488">
<rect width="20" height="20" fill="white"/>
</clipPath>
</defs>
</svg>
