<svg width="25" height="25" viewBox="0 0 25 25" fill="none" xmlns="http://www.w3.org/2000/svg">
<g id="Social icon" clipPath="url(#clip0_340_433)">
<path id="path4" d="M21.3426 17.1554C21.0099 17.924 20.6161 18.6315 20.1598 19.282C19.5378 20.1687 19.0286 20.7825 18.6361 21.1234C18.0277 21.6829 17.3759 21.9694 16.6779 21.9857C16.1768 21.9857 15.5725 21.8431 14.8691 21.5539C14.1633 21.266 13.5148 21.1234 12.9217 21.1234C12.2998 21.1234 11.6327 21.266 10.9193 21.5539C10.2047 21.8431 9.62904 21.9939 9.18892 22.0088C8.51957 22.0373 7.85239 21.7426 7.18644 21.1234C6.76139 20.7527 6.22974 20.1171 5.59285 19.2168C4.90951 18.2553 4.34772 17.1404 3.9076 15.8694C3.43624 14.4964 3.19995 13.167 3.19995 11.8799C3.19995 10.4055 3.51853 9.13389 4.15665 8.06828C4.65815 7.21234 5.32533 6.53715 6.16035 6.04149C6.99537 5.54582 7.89761 5.29324 8.86925 5.27708C9.4009 5.27708 10.0981 5.44153 10.9645 5.76473C11.8284 6.08902 12.3832 6.25347 12.6264 6.25347C12.8082 6.25347 13.4245 6.06118 14.4692 5.67782C15.4571 5.3223 16.2909 5.1751 16.974 5.23308C18.8249 5.38246 20.2155 6.1121 21.1402 7.42663C19.4849 8.42964 18.666 9.83447 18.6823 11.6367C18.6972 13.0404 19.2065 14.2085 20.2073 15.136C20.6609 15.5665 21.1674 15.8992 21.731 16.1355C21.6087 16.4899 21.4797 16.8294 21.3426 17.1554ZM17.0975 0.450806C17.0975 1.55106 16.6956 2.57836 15.8944 3.52922C14.9275 4.6596 13.758 5.31279 12.4898 5.20972C12.4736 5.07773 12.4642 4.93881 12.4642 4.79282C12.4642 3.73658 12.924 2.6062 13.7406 1.68195C14.1483 1.21399 14.6667 0.82489 15.2955 0.514495C15.9229 0.208732 16.5163 0.0396378 17.0744 0.0106812C17.0907 0.157768 17.0975 0.304863 17.0975 0.450792V0.450806Z" fill="black"/>
</g>
<defs>
<clipPath id="clip0_340_433">
<rect width="24" height="24" fill="white" transform="translate(0.5 0.010437)"/>
</clipPath>
</defs>
</svg>
