<svg width="25" height="25" viewBox="0 0 25 25" fill="none" xmlns="http://www.w3.org/2000/svg">
<g id="Social icon" clipPath="url(#clip0_340_428)">
<path id="Vector" d="M24.5 12.0104C24.5 5.38302 19.1274 0.010437 12.5 0.010437C5.87258 0.010437 0.5 5.38302 0.5 12.0104C0.5 17.9999 4.8882 22.9644 10.625 23.8647V15.4792H7.57812V12.0104H10.625V9.36669C10.625 6.35919 12.4166 4.69794 15.1576 4.69794C16.4701 4.69794 17.8438 4.93231 17.8438 4.93231V7.88544H16.3306C14.84 7.88544 14.375 8.81052 14.375 9.76044V12.0104H17.7031L17.1711 15.4792H14.375V23.8647C20.1118 22.9644 24.5 17.9999 24.5 12.0104Z" fill="#1877F2"/>
<path id="Vector_2" d="M17.1711 15.4792L17.7031 12.0104H14.375V9.76044C14.375 8.81145 14.84 7.88544 16.3306 7.88544H17.8438V4.93231C17.8438 4.93231 16.4705 4.69794 15.1576 4.69794C12.4166 4.69794 10.625 6.35919 10.625 9.36669V12.0104H7.57812V15.4792H10.625V23.8647C11.8674 24.059 13.1326 24.059 14.375 23.8647V15.4792H17.1711Z" fill="white"/>
</g>
<defs>
<clipPath id="clip0_340_428">
<rect width="24" height="24" fill="white" transform="translate(0.5 0.010437)"/>
</clipPath>
</defs>
</svg>
