<svg width="165" height="165" viewBox="0 0 165 165" fill="none" xmlns="http://www.w3.org/2000/svg">
<g id="Confirmation" clipPath="url(#clip0_316_19083)">
<path id="Vector" d="M128.566 63.0397C123.74 51.5779 114.828 42.3181 103.559 37.0579C92.2898 31.7978 79.4682 30.9127 67.5833 34.5744C55.6983 38.236 45.5979 46.1833 39.2429 56.8733C32.888 67.5632 30.7319 80.2332 33.1933 92.4235C35.6546 104.614 42.5578 115.455 52.5627 122.841C62.5675 130.228 74.9602 133.634 87.3348 132.397C99.7094 131.16 111.183 125.37 119.528 116.149C127.874 106.929 132.495 94.9363 132.495 82.5C132.506 75.8152 131.169 69.1968 128.566 63.0397ZM76.1544 113.124L62.8735 101.724L50.0795 90.75L61.4451 77.5079L73.2006 87.5972L100.835 51.8796L114.921 62.1775L76.1544 113.124Z" fill="#3D5AF1"/>
<path id="Vector_2" d="M165 82.5388L155.78 67.959L158.732 50.9737L144.658 41.0171L140.857 24.2016L124.033 20.4034L114.108 6.30882L97.1142 9.22059L82.5392 0L67.9594 9.22059L50.9741 6.26838L41.0175 20.3419L24.1939 24.1434L20.3957 40.9669L6.30923 50.8928L9.22099 67.8781L0.0117188 82.4531L9.23231 97.0329L6.2801 114.018L20.3536 123.975L24.1551 140.798L40.9786 144.597L50.9126 158.693L67.906 155.781L82.481 164.99L97.0608 155.77L114.046 158.722L124.003 144.648L140.826 140.847L144.625 124.023L158.721 114.089L155.809 97.096L165 82.5388ZM82.5004 141.164C50.1005 141.164 23.8364 114.9 23.8364 82.5C23.8364 50.1001 50.1005 23.836 82.5004 23.836C114.9 23.836 141.164 50.1001 141.164 82.5C141.164 114.9 114.9 141.164 82.5004 141.164Z" fill="#3D5AF1"/>
</g>
<defs>
<clipPath id="clip0_316_19083">
<rect width="165" height="165" fill="white"/>
</clipPath>
</defs>
</svg>
