<svg width="234" height="51" viewBox="0 0 234 51" fill="none" xmlns="http://www.w3.org/2000/svg">
<path d="M60.1761 41V12.9942H69.5781C77.2997 12.9942 84.0611 17.4351 84.0611 26.9971C84.0611 36.5191 77.2997 41 69.5781 41H60.1761ZM66.1774 35.7989H68.9779C73.5789 35.7989 77.9798 33.5985 77.9798 26.9971C77.9798 20.3957 73.5789 18.1552 68.9779 18.1552H66.1774V35.7989ZM95.8351 20.5157C100.916 20.5157 104.637 23.4763 104.637 28.0373V41H99.1158V38.1994C98.4357 40.0798 96.1952 41.3201 93.4346 41.3201C89.5138 41.3201 86.8332 38.7195 86.8332 35.2788C86.8332 31.318 89.7939 28.9175 94.1948 28.9175H97.5955C98.5957 28.9175 99.1158 28.2773 99.1158 27.4372C99.1158 25.7568 97.7955 24.5966 95.515 24.5966C93.0745 24.5966 91.8343 26.1169 91.7543 27.7972H86.7932C87.0333 23.7564 90.314 20.5157 95.8351 20.5157ZM94.8349 37.2792C97.5555 37.2792 99.1158 35.2788 99.1158 32.7183V32.4382H95.0349C93.3546 32.4382 92.1543 33.4784 92.1543 35.0388C92.1543 36.359 93.2746 37.2792 94.8349 37.2792ZM108.294 12.074H114.216V17.9552H108.294V12.074ZM108.454 41V20.8358H114.055V41H108.454ZM118.464 41V12.074H124.025V41H118.464ZM146.463 20.8358L139.142 40.92L136.301 49.1617H130.98L133.941 40.84L126.619 20.8358H132.3L136.541 33.8385L140.742 20.8358H146.463ZM149.296 41V12.9942H168.34V18.1552H155.298V24.3965H165.7V29.5976H155.298V41H149.296ZM172.069 41V12.074H177.63V41H172.069ZM191.626 41.3201C185.425 41.3201 180.984 36.9191 180.984 30.9179C180.984 24.9166 185.425 20.5157 191.626 20.5157C197.828 20.5157 202.269 24.9166 202.269 30.9179C202.269 36.9191 197.828 41.3201 191.626 41.3201ZM191.626 36.5191C194.627 36.5191 196.667 34.2386 196.667 30.9179C196.667 27.5572 194.627 25.2767 191.626 25.2767C188.626 25.2767 186.585 27.5572 186.585 30.9179C186.585 34.2386 188.626 36.5191 191.626 36.5191ZM209.412 41L202.851 20.8358H208.452L211.852 33.2784L215.413 20.8358H220.494L224.095 33.2784L227.496 20.8358H233.057L226.536 41H221.655L217.974 28.4374L214.253 41H209.412Z" fill="#3D5AF1"/>
<g clipPath="url(#clip0_308_15462)">
<mask id="mask0_308_15462" style="mask-type:luminance" maskUnits="userSpaceOnUse" x="0" y="4" width="47" height="43">
<path d="M0.30896 16.3177H4.28727V20.283H0.30896V16.3177ZM6.19694 23.7379H12.5619V30.0828H6.19694V23.7379ZM19.9118 19.8494H29.98V30.7157H19.0779V20.525L14.2092 15.8463H6.97622V7.83801H15.0109V15.1405L19.9118 19.8494ZM19.0779 4.44534H25.5228C31.0428 4.48292 36.3239 6.69488 40.2138 10.5986C44.1038 14.5024 46.2869 19.7811 46.2869 25.283C46.2869 30.785 44.1038 36.0637 40.2138 39.9674C36.3239 43.8712 31.0428 46.0831 25.5228 46.1207H19.0779V38.6267H25.5228C29.0537 38.5967 32.4296 37.1776 34.9157 34.6784C37.4018 32.1793 38.7967 28.8024 38.7967 25.283C38.7967 21.7637 37.4018 18.3868 34.9157 15.8876C32.4296 13.3885 29.0537 11.9694 25.5228 11.9393H19.0779V4.44534Z" fill="white"/>
</mask>
<g mask="url(#mask0_308_15462)">
<path d="M46.4297 4.44534H0.30896V46.1207H46.4297V4.44534Z" fill="url(#paint0_linear_308_15462)"/>
</g>
</g>
<defs>
<linearGradient id="paint0_linear_308_15462" x1="0.0311242" y1="7.2237" x2="34.7606" y2="52.7888" gradientUnits="userSpaceOnUse">
<stop stop-color="#3D5AF1"/>
<stop offset="1" stop-color="#22D1EE"/>
</linearGradient>
<clipPath id="clip0_308_15462">
<rect width="46.1207" height="41.6754" fill="white" transform="translate(0.30896 4.44534)"/>
</clipPath>
</defs>
</svg>
